<svg width="184" height="184" viewBox="0 0 184 184" fill="none" xmlns="http://www.w3.org/2000/svg">
<path d="M92.0698 31C125.774 31 153.14 58.3674 153.14 92.0744C153.14 125.781 125.774 153.149 92.0698 153.149C58.3654 153.149 31 125.781 31 92.0744C31 58.3674 58.3654 31 92.0698 31Z" fill="#CB3530"/>
<g opacity="0.2">
<path d="M92 14C135.048 14 170 48.9518 170 92C170 135.048 135.048 170 92 170C48.9518 170 14 135.048 14 92C14 48.9518 48.9518 14 92 14Z" fill="#CB3530"/>
</g>
<path fill-rule="evenodd" clip-rule="evenodd" d="M101.087 104.74C97.9633 107.214 94.0389 108.454 90.0605 108.223C86.082 107.993 82.3269 106.309 79.509 103.491C76.6911 100.673 75.0069 96.918 74.7766 92.9395C74.5464 88.9611 75.786 85.0367 78.26 81.9125L101.087 104.74ZM103.74 102.09L80.9125 79.2575C84.0367 76.7835 87.9611 75.5439 91.9395 75.7741C95.918 76.0044 99.6731 77.6886 102.491 80.5065C105.309 83.3244 106.993 87.0795 107.223 91.058C107.454 95.0364 106.214 98.9608 103.74 102.085V102.09ZM111 92C111 97.3043 108.893 102.391 105.142 106.142C101.391 109.893 96.3043 112 91 112C85.6957 112 80.6086 109.893 76.8579 106.142C73.1071 102.391 71 97.3043 71 92C71 86.6957 73.1071 81.6086 76.8579 77.8579C80.6086 74.1071 85.6957 72 91 72C96.3043 72 101.391 74.1071 105.142 77.8579C108.893 81.6086 111 86.6957 111 92Z" fill="white"/>
<g opacity="0.1">
<path d="M92 0C142.775 0 184 41.2252 184 92C184 142.775 142.775 184 92 184C41.2252 184 0 142.775 0 92C0 41.2252 41.2252 0 92 0Z" fill="#CB3530"/>
</g>
</svg>
